<?xml version="1.0" encoding="UTF-8"?>
<svg width="215px" height="73px" viewBox="0 0 215 73" version="1.1" xmlns="http://www.w3.org/2000/svg" xmlns:xlink="http://www.w3.org/1999/xlink">
    <!-- Generator: Sketch 52.2 (67145) - http://www.bohemiancoding.com/sketch -->
    <title>Group 24</title>
    <desc>Created with Sketch.</desc>
    <defs>
        <polygon id="path-1" points="0 0.491466667 29.0280784 0.491466667 29.0280784 45.644 0 45.644"></polygon>
        <polygon id="path-3" points="0 72 213.791915 72 213.791915 0.188266667 0 0.188266667"></polygon>
    </defs>
    <g id="Styleguide" stroke="none" stroke-width="1" fill="none" fill-rule="evenodd">
        <g id="Topp--og-bunnfelt" transform="translate(-180.000000, -353.000000)">
            <g id="Group-24" transform="translate(180.838710, 353.308571)">
                <polygon fill="#FFB392" points="0 25 6 25 6 17 0 17"></polygon>
                <g id="Group-23">
                    <path d="M42.4421683,44.6818133 C40.737696,50.3495467 36.9244095,54.2583467 30.7807814,55.96928 C30.2151332,56.1266133 29.6328166,56.2690133 29.0279171,56.38848 L29.0279171,70.34528 C29.618299,70.27648 30.203304,70.1991467 30.7807814,70.1106133 C45.783902,67.8210133 56.2446307,59.0135467 58.9954447,44.6818133 L42.4421683,44.6818133 Z" fill="#FFB392"></path>
                    <path d="M57.3289332,23.0255467 C52.2730487,9.94768 39.5427372,2.86608 22.5861945,2.86608 L5.93398342,2.86608 L5.93398342,25.5578133 L16.2199633,25.5578133 L16.2199633,16.6287467 L22.8792347,16.6287467 C25.4192749,16.6287467 27.7066015,16.8762133 29.7578829,17.34768 C30.106305,17.4271467 30.4466618,17.51408 30.7805663,17.60688 C34.4959935,18.6415467 37.358109,20.48048 39.4179935,23.0255467 C42.1725714,26.4287467 43.4958226,31.0911467 43.4958226,36.7882133 C43.4958226,39.7007467 43.1468628,42.3391467 42.4419533,44.6815467 L58.9957673,44.6815467 C59.4694709,42.2127467 59.7162698,39.5802133 59.7162698,36.7882133 C59.7162698,31.6522133 58.8866166,27.05488 57.3289332,23.0255467" fill="#0079AC"></path>
                    <g id="Group-8" transform="translate(0.000000, 25.066667)">
                        <mask id="mask-2" fill="white">
                            <use xlink:href="#path-1"></use>
                        </mask>
                        <g id="Clip-7"></g>
                        <path d="M22.8790734,31.8808 L16.219802,31.8808 L16.219802,0.491466667 L-0.000107537688,0.491466667 L-0.000107537688,45.644 L22.5860332,45.644 C24.8088372,45.644 26.9579779,45.5197333 29.0280784,45.2786667 L29.0280784,31.3218667 C27.1676764,31.6909333 25.1206965,31.8808 22.8790734,31.8808" fill="#23099F" mask="url(#mask-2)"></path>
                    </g>
                    <mask id="mask-4" fill="white">
                        <use xlink:href="#path-3"></use>
                    </mask>
                    <g id="Clip-10"></g>
                    <polygon fill="#0079AC" mask="url(#mask-4)" points="81.3006432 70.7104 88.1432663 70.7104 88.1432663 58.8165333 81.3006432 58.8165333"></polygon>
                    <polygon fill="#23099F" mask="url(#mask-4)" points="72.283393 21.3989867 72.283393 44.6816533 81.3004281 44.6816533 81.3004281 58.8165867 88.1430513 58.8165867 88.1430513 21.3989867"></polygon>
                    <polygon fill="#FFB392" mask="url(#mask-4)" points="72.283608 70.7104 81.3006432 70.7104 81.3006432 44.6816 72.283608 44.6816"></polygon>
                    <path d="M88.5282513,8.43546667 C88.5282513,3.8808 84.8052965,0.188 80.2134372,0.188 C79.3316281,0.188 78.4820804,0.3256 77.6846884,0.577866667 L77.6846884,8.43546667 L88.5282513,8.43546667 Z" fill="#FFB392" mask="url(#mask-4)"></path>
                    <path d="M77.6844196,8.43546667 L71.8983543,8.43546667 C71.8983543,12.1154667 74.3292437,15.2317333 77.6844196,16.2936 C78.4818116,16.5458667 79.3313593,16.6834667 80.2131683,16.6834667 C84.8055653,16.6834667 88.5279824,12.9906667 88.5279824,8.43546667 L77.6844196,8.43546667 Z" fill="#0079AC" mask="url(#mask-4)"></path>
                    <polygon fill="#FFB392" mask="url(#mask-4)" points="133.123539 21.4010667 119.848012 36.3434667 109.401263 36.3434667 109.401263 50.8261333 141.784625 50.8261333 135.533996 41.2682667 153.328258 21.4010667"></polygon>
                    <polygon fill="#0079AC" mask="url(#mask-4)" points="103.99701 36.3434667 119.845915 36.3434667 119.845915 1.70026667 103.99701 1.70026667"></polygon>
                    <polygon fill="#0079AC" mask="url(#mask-4)" points="164.043797 21.33024 164.043797 26.32064 173.744234 26.32064 173.744234 44.6817067 179.900767 44.6817067 179.900767 21.33024"></polygon>
                    <path d="M164.043797,26.3209067 L164.043797,47.3267733 L164.043797,47.3273067 C164.043797,48.64304 164.149722,49.9331733 164.349742,51.1929067 C165.358983,57.5545067 168.821159,63.10544 173.744234,66.8713067 L173.744234,26.3209067 L164.043797,26.3209067 Z" fill="#23099F" mask="url(#mask-4)"></path>
                    <path d="M213.775515,46.4880533 L213.775515,21.3301867 L197.934676,21.3301867 L197.934676,47.3269867 L197.935214,47.3269867 C197.935214,47.34352 197.934138,47.3589867 197.934138,47.3744533 L197.934676,47.3744533 L197.934676,48.16912 L197.933063,48.16912 C197.933063,48.1824533 197.931987,48.1952533 197.931987,48.2085867 C197.931987,48.24432 197.934676,48.27952 197.934676,48.3157867 C197.934676,49.32272 197.764229,50.2896533 197.455058,51.1925867 C196.918445,52.7589867 195.958133,54.1301867 194.70747,55.17072 L212.500656,55.17072 C212.93457,53.8880533 213.269013,52.5600533 213.485701,51.1925867 C213.685721,49.9333867 213.792183,48.64272 213.792183,47.3269867 C213.792183,47.0464533 213.785193,46.7669867 213.775515,46.4880533" fill="#23099F" mask="url(#mask-4)"></path>
                    <path d="M194.707524,55.17088 C193.140699,56.4738133 191.122217,57.2599467 188.917157,57.2599467 C186.695966,57.2599467 184.663504,56.46208 183.092378,55.14048 C183.054202,55.10848 183.017639,55.07328 182.979463,55.0402133 C182.852569,54.9298133 182.727287,54.81728 182.606845,54.6994133 C182.558991,54.6530133 182.513825,54.60448 182.467046,54.5570133 C182.360046,54.4482133 182.254659,54.3378133 182.153574,54.2242133 C182.10572,54.1698133 182.059478,54.1143467 182.012699,54.05888 C181.917529,53.9463467 181.825046,53.8322133 181.73579,53.7154133 C181.690086,53.6562133 181.645458,53.5959467 181.601368,53.53568 C181.515338,53.41728 181.433071,53.2962133 181.352956,53.17408 C181.312091,53.1122133 181.271765,53.0498133 181.232514,52.98688 C181.152936,52.8583467 181.077659,52.7271467 181.005071,52.5938133 C180.971735,52.53408 180.937323,52.47488 180.905599,52.41408 C180.828172,52.2647467 180.756122,52.1122133 180.686222,51.95808 C180.665252,51.9111467 180.642132,51.86528 180.621699,51.8178133 C180.533519,51.6130133 180.452328,51.4050133 180.37974,51.1927467 L180.379202,51.1927467 C180.3378,51.07168 180.303926,50.9479467 180.268976,50.8247467 L173.744127,50.8247467 L173.744127,66.8711467 C177.944011,70.08448 183.203679,72.0002133 188.917694,72.0002133 C199.890303,72.0002133 209.196076,64.9506133 212.50071,55.17088 L194.707524,55.17088 Z" fill="#FFB392" mask="url(#mask-4)"></path>
                    <polygon fill="#23099F" mask="url(#mask-4)" points="155.133332 70.7099733 141.784678 50.82624 123.79201 50.82624 137.211638 70.7099733"></polygon>
                    <polygon fill="#23099F" mask="url(#mask-4)" points="103.997279 70.7104533 119.846721 70.7104533 119.846721 55.26512 123.792279 50.8261867 103.997279 50.8261867"></polygon>
                </g>
            </g>
        </g>
    </g>
</svg>